<svg width="24" height="25" viewBox="0 0 24 25" fill="none" xmlns="http://www.w3.org/2000/svg">
<g clip-path="url(#clip0_31_102)">
<path d="M12 2.255C6.5 2.255 2 6.755 2 12.255C2 17.755 6.5 22.255 12 22.255C17.5 22.255 22 17.755 22 12.255C22 6.755 17.5 2.255 12 2.255ZM6.429 17.826C4.929 16.326 4.143 14.326 4.143 12.398L11.929 20.112C9.929 20.041 7.929 19.326 6.429 17.826ZM13.714 19.898L4.357 10.541C5.143 7.04101 8.286 4.39801 12 4.39801C14.643 4.39801 16.929 5.684 18.357 7.612L17.286 8.54101C16.07 6.89801 14.143 5.82501 12 5.82501C9.214 5.82501 6.857 7.611 5.929 10.111L14.143 18.325C16.214 17.611 17.786 15.825 18.286 13.683H14.857V12.255H19.857C19.857 15.969 17.214 19.112 13.714 19.898Z" fill="#607B96"/>
</g>
<defs>
<clipPath id="clip0_31_102">
<rect width="24" height="24" fill="white" transform="translate(0 0.255005)"/>
</clipPath>
</defs>
</svg>
