<svg width="21" height="17" viewBox="0 0 21 17" fill="none" xmlns="http://www.w3.org/2000/svg">
<path d="M20.3832 2.15599C19.6198 2.49368 18.8102 2.71546 17.9812 2.81399C18.855 2.29142 19.509 1.469 19.8212 0.499988C19.0012 0.987988 18.1022 1.32999 17.1652 1.51499C16.5359 0.841567 15.7016 0.394951 14.7922 0.244572C13.8828 0.0941939 12.9492 0.248479 12.1365 0.683441C11.3238 1.1184 10.6776 1.80967 10.2984 2.64978C9.91909 3.48989 9.82799 4.43177 10.0392 5.32899C8.37635 5.24564 6.74958 4.81351 5.26453 4.06065C3.77949 3.30779 2.46937 2.25104 1.41924 0.958988C1.04753 1.59744 0.852199 2.32321 0.853244 3.06199C0.853244 4.51199 1.59124 5.79299 2.71324 6.54299C2.04925 6.52208 1.39988 6.34277 0.819244 6.01999V6.07199C0.819445 7.03769 1.15361 7.9736 1.76509 8.72105C2.37657 9.46849 3.22773 9.98146 4.17424 10.173C3.55786 10.34 2.91155 10.3646 2.28424 10.245C2.55111 11.0762 3.07125 11.8032 3.77184 12.3241C4.47242 12.845 5.31837 13.1338 6.19124 13.15C5.32372 13.8313 4.33042 14.335 3.26812 14.6322C2.20583 14.9293 1.09537 15.0142 0.000244141 14.882C1.91194 16.1114 4.13734 16.7641 6.41024 16.762C14.1032 16.762 18.3102 10.389 18.3102 4.86199C18.3102 4.68199 18.3052 4.49999 18.2972 4.32199C19.1161 3.73016 19.8228 2.99701 20.3842 2.15699L20.3832 2.15599Z" fill="#607B96"/>
</svg>
