<svg width="28" height="29" viewBox="0 0 28 29" fill="none" xmlns="http://www.w3.org/2000/svg">
<rect y="0.255005" width="28" height="28" rx="2" fill="#B7A1CE"/>
<path d="M14 5.73761C9.31543 5.73761 5.4826 9.57044 5.4826 14.255C5.4826 18.9396 9.31543 22.7724 14 22.7724C18.6846 22.7724 22.5174 18.9396 22.5174 14.255C22.5174 9.57044 18.6846 5.73761 14 5.73761ZM9.25496 19.0001C7.97735 17.7224 7.30788 16.019 7.30788 14.3768L13.9395 20.9471C12.2361 20.8867 10.5326 20.2777 9.25496 19.0001ZM15.4599 20.7649L7.49016 12.7951C8.15962 9.81404 10.8366 7.56289 14 7.56289C16.2512 7.56289 18.1982 8.65823 19.4145 10.3004L18.5023 11.0916C17.4666 9.69224 15.8253 8.77832 14 8.77832C11.6271 8.77832 9.61951 10.2995 8.82909 12.4289L15.8253 19.4251C17.5892 18.8169 18.9282 17.2957 19.354 15.4713H16.4334V14.255H20.6921C20.6921 17.4184 18.441 20.0954 15.4599 20.7649Z" fill="#011221"/>
</svg>
