<svg width="28" height="29" viewBox="0 0 28 29" fill="none" xmlns="http://www.w3.org/2000/svg">
<rect y="0.255005" width="28" height="28" rx="2" fill="#E9CA32"/>
<g clip-path="url(#clip0_3324_982)">
<path d="M7.58949 21.0534L6.29999 5.68387L21.7 5.71475L20.3365 21.0534L14.0581 22.8264L7.58949 21.0534Z" fill="#011221"/>
<path d="M14.0582 21.3419V7.14749L20.4 7.16808L19.2691 19.8678L14.0582 21.3419Z" fill="#011221"/>
<path d="M13.379 8.83289H11.7024V18.2803L10.3984 18.0381V16.7663L8.84595 16.5241V19.3704L13.379 20.5211V8.83289ZM14.6367 8.83289H19.2782L18.9677 10.6436H16.4086V13.6151H18.9677L18.6572 19.6127L14.6367 20.5211V18.6437L17.3532 17.7353L17.5101 15.2523L14.6367 15.6581V8.83289Z" fill="#E9CA32"/>
</g>
<defs>
<clipPath id="clip0_3324_982">
<rect width="15.4" height="17.2" fill="white" transform="translate(6.29999 5.655)"/>
</clipPath>
</defs>
</svg>
